<svg width="77" height="77" viewBox="0 0 77 77" fill="none" xmlns="http://www.w3.org/2000/svg">
<g id="cib-buy-me-a-coffee" clip-path="url(#clip0_166_921)">
<path id="Vector" d="M22.1304 -3.5156e-05L18.2347 8.98731H12.4429V17.0699H14.659L16.9281 31.4472H13.3837L18.0711 57.851L21.0765 57.8149L24.0987 77H52.7115L52.9112 75.7222L55.7313 57.8125L58.5899 57.8486L63.2653 31.4448H59.8797L62.1343 17.0675H64.5671V8.9849H58.4143L54.5041 -0.00244141L22.1304 -3.5156e-05ZM23.8244 2.58187H52.8366L55.303 8.29671H21.3388L23.8244 2.58187ZM15.0031 11.5572H61.9852V14.5121H15.0031V11.5572ZM16.4565 34.0147H60.2093L56.4363 55.2451L38.3028 55.055L20.2295 55.2451L16.4565 34.0147Z" fill="black"/>
</g>
<defs>
<clipPath id="clip0_166_921">
<rect width="77" height="77" fill="white"/>
</clipPath>
</defs>
</svg>
