<svg width="69" height="69" viewBox="0 0 69 69" fill="none" xmlns="http://www.w3.org/2000/svg">
<g id="coffee-cup 1" clip-path="url(#clip0_251_951)">
<g id="Group">
<g id="Group_2">
<path id="Vector" d="M49.8146 48.6992C49.0734 48.6197 48.4107 49.1562 48.3317 49.8962L46.5809 66.3049H22.4191L20.6921 50.1167C20.6131 49.3766 19.9494 48.8401 19.2091 48.9197C18.469 48.9987 17.9331 49.6627 18.0121 50.4027L19.8677 67.7955C19.9407 68.4805 20.5188 69.0002 21.2077 69.0002H47.7926C48.4815 69.0002 49.0596 68.4805 49.1326 67.7955L51.0118 50.1822C51.0906 49.4422 50.5546 48.7782 49.8146 48.6992Z" fill="#324A59"/>
<path id="Vector_2" d="M56.0613 9.60744H53.0459L50.6719 3.77088C50.4653 3.26308 49.9718 2.93102 49.4236 2.93102H41.1552L38.8396 0.431789C38.5845 0.156463 38.2263 0 37.851 0H31.1488C30.7735 0 30.4153 0.156463 30.1603 0.431789L27.8448 2.93102H19.5764C19.0281 2.93102 18.5346 3.26308 18.328 3.77088L15.9539 9.60744H12.9385C12.1942 9.60744 11.5908 10.2108 11.5908 10.9551V16.7464C11.5908 17.4907 12.1942 18.094 12.9385 18.094H14.5648L16.2567 33.9518C16.3356 34.6919 16.9994 35.2281 17.7396 35.1488C18.4798 35.0698 19.0156 34.4058 18.9366 33.6658L17.2752 18.094H51.7243L50.0574 33.7176C49.9784 34.4577 50.5144 35.1215 51.2544 35.2005C51.303 35.2058 51.3513 35.2083 51.399 35.2083C52.079 35.2083 52.6636 34.695 52.7373 34.0035L54.4347 18.094H56.061C56.8054 18.094 57.4087 17.4907 57.4087 16.7464V10.9551C57.409 10.2108 56.8056 9.60744 56.0613 9.60744ZM20.4829 5.62633H28.4333C28.8086 5.62633 29.1668 5.46987 29.4218 5.19454L31.7373 2.69531H37.2625L39.578 5.19454C39.8331 5.46973 40.1913 5.62633 40.5665 5.62633H48.5169L50.1362 9.60744H18.8636L20.4829 5.62633ZM54.7137 15.3987H14.2861V12.3028H54.7137V15.3987Z" fill="#324A59"/>
</g>
<g id="Group_3">
<path id="Vector_3" d="M13.8691 29.5024L16.5564 54.6893H52.4434L55.1306 29.5024H13.8691ZM34.4999 47.1589C31.7609 47.1589 29.5405 44.9385 29.5405 42.1995C29.5405 39.4606 31.7609 37.2401 34.4999 37.2401C37.2388 37.2401 39.4592 39.4606 39.4592 42.1995C39.4592 44.9385 37.2388 47.1589 34.4999 47.1589Z" fill="#E4D5C9"/>
<g id="Group_4">
<path id="Vector_4" d="M34.4999 48.5067C31.0221 48.5067 28.1929 45.6774 28.1929 42.1996C28.1929 38.7219 31.0221 35.8926 34.4999 35.8926C37.9777 35.8926 40.807 38.7219 40.807 42.1996C40.807 45.6774 37.9777 48.5067 34.4999 48.5067ZM34.4999 38.588C32.5085 38.588 30.8882 40.2082 30.8882 42.1998C30.8882 44.1913 32.5083 45.8115 34.4999 45.8115C36.4915 45.8115 38.1116 44.1913 38.1116 42.1998C38.1116 40.2082 36.4913 38.588 34.4999 38.588Z" fill="#324A59"/>
</g>
</g>
</g>
</g>
<defs>
<clipPath id="clip0_251_951">
<rect width="69" height="69" fill="white"/>
</clipPath>
</defs>
</svg>
